<svg width="118" height="52" viewBox="0 0 118 52" fill="none" xmlns="http://www.w3.org/2000/svg">
<path d="M33.5066 1.52544C33.416 1.5247 33.3255 1.53164 33.236 1.54617L25.7777 2.60737C25.484 2.64911 25.2077 2.77146 24.9798 2.96071C24.752 3.14996 24.5815 3.39865 24.4875 3.67893L21.6552 12.1416H8.95691C8.74513 12.1386 8.53487 12.1776 8.33834 12.2562C8.14181 12.3349 7.96293 12.4516 7.81211 12.5998C7.66129 12.7479 7.54152 12.9243 7.45978 13.119C7.37803 13.3136 7.33594 13.5224 7.33594 13.7334C7.33594 13.9443 7.37803 14.1532 7.45978 14.3478C7.54152 14.5424 7.66129 14.7189 7.81211 14.867C7.96293 15.0151 8.14181 15.1319 8.33834 15.2105C8.53487 15.2892 8.74513 15.3281 8.95691 15.3252H9.14212L12.3281 45.0283C12.3288 45.0304 12.3295 45.0325 12.3302 45.0346C12.5987 47.4401 14.6659 49.2835 17.0957 49.2835H27.3551C29.7856 49.2835 31.852 47.4394 32.1206 45.0346L35.598 15.3252C35.8098 15.3279 36.02 15.2886 36.2164 15.2097C36.4128 15.1308 36.5915 15.0138 36.7421 14.8655C36.8927 14.7172 37.0123 14.5405 37.0937 14.3458C37.1752 14.1511 37.2171 13.9422 37.2168 13.7313C37.2165 13.5203 37.1741 13.3115 37.0921 13.117C37.0101 12.9225 36.8902 12.7462 36.7392 12.5983C36.5882 12.4504 36.4091 12.3338 36.2125 12.2554C36.0159 12.177 35.8056 12.1383 35.5938 12.1416H25.0265L27.2074 5.61893L33.6897 4.6966C34.0914 4.64586 34.4588 4.44515 34.7177 4.13504C34.9765 3.82492 35.1076 3.42851 35.0843 3.02589C35.0611 2.62326 34.8852 2.24443 34.5924 1.96592C34.2995 1.68741 33.9115 1.52998 33.5066 1.52544ZM12.3573 15.3252H22.5521C22.7169 15.351 22.8847 15.351 23.0495 15.3252H32.3807L28.945 44.676C28.945 44.6788 28.945 44.6815 28.945 44.6843C28.8535 45.5034 28.1828 46.0999 27.3551 46.0999H17.0957C16.2697 46.0999 15.6025 45.5074 15.5079 44.6905V44.6884L12.3573 15.3252Z" fill="#F2CC21"/>
<path d="M12.1523 15.3252H32.3964L29.765 47.1611H15.3003L12.1523 15.3252Z" fill="#F2CC21"/>
<path d="M67.6238 1.53033C67.5331 1.52959 67.4426 1.53652 67.3532 1.55105L59.8949 2.61225C59.6012 2.654 59.3249 2.77634 59.097 2.96559C58.8692 3.15484 58.6987 3.40353 58.6047 3.68381L55.7724 12.1465H43.0741C42.8623 12.1435 42.6521 12.1824 42.4555 12.2611C42.259 12.3398 42.0801 12.4565 41.9293 12.6046C41.7785 12.7527 41.6587 12.9292 41.577 13.1238C41.4952 13.3184 41.4531 13.5273 41.4531 13.7382C41.4531 13.9492 41.4952 14.1581 41.577 14.3527C41.6587 14.5473 41.7785 14.7238 41.9293 14.8719C42.0801 15.02 42.259 15.1367 42.4555 15.2154C42.6521 15.2941 42.8623 15.333 43.0741 15.33H43.2593L46.4453 45.0332C46.446 45.0353 46.4467 45.0374 46.4474 45.0394C46.7159 47.445 48.7831 49.2884 51.2129 49.2884H61.4723C63.9028 49.2884 65.9692 47.4443 66.2378 45.0394L69.7152 15.33C69.9269 15.3327 70.1371 15.2935 70.3336 15.2146C70.53 15.1357 70.7087 15.0186 70.8593 14.8703C71.0099 14.722 71.1294 14.5454 71.2109 14.3507C71.2924 14.156 71.3342 13.9471 71.334 13.7361C71.3337 13.5252 71.2913 13.3164 71.2093 13.1219C71.1273 12.9274 71.0073 12.7511 70.8563 12.6032C70.7053 12.4553 70.5263 12.3387 70.3297 12.2603C70.1331 12.1819 69.9228 12.1432 69.711 12.1465H59.1436L61.3245 5.62382L67.8069 4.70149C68.2086 4.65074 68.576 4.45004 68.8348 4.13992C69.0937 3.82981 69.2247 3.4334 69.2015 3.03077C69.1782 2.62814 69.0024 2.24931 68.7096 1.9708C68.4167 1.69229 68.0286 1.53487 67.6238 1.53033ZM46.4745 15.33H56.6693C56.8341 15.3559 57.0019 15.3559 57.1667 15.33H66.4979L63.0622 44.6809C63.0622 44.6836 63.0622 44.6864 63.0622 44.6892C62.9707 45.5083 62.3 46.1048 61.4723 46.1048H51.2129C50.3868 46.1048 49.7197 45.5123 49.6251 44.6954V44.6933L46.4745 15.33Z" fill="#F2CC21"/>
<path d="M45.7148 14.4766H67.4506L64.6253 46.3125H49.0948L45.7148 14.4766Z" fill="#F2CC21"/>
<path d="M102.147 1.5313C102.057 1.53056 101.966 1.5375 101.877 1.55203L94.4183 2.61323C94.1246 2.65497 93.8483 2.77732 93.6205 2.96657C93.3926 3.15582 93.2221 3.40451 93.1281 3.68479L90.2958 12.1474H77.5975C77.3858 12.1444 77.1755 12.1834 76.979 12.2621C76.7824 12.3407 76.6036 12.4575 76.4527 12.6056C76.3019 12.7537 76.1821 12.9302 76.1004 13.1248C76.0187 13.3194 75.9766 13.5283 75.9766 13.7392C75.9766 13.9502 76.0187 14.159 76.1004 14.3536C76.1821 14.5482 76.3019 14.7247 76.4527 14.8728C76.6036 15.0209 76.7824 15.1377 76.979 15.2164C77.1755 15.295 77.3858 15.334 77.5975 15.331H77.7827L80.9688 45.0342C80.9695 45.0363 80.9702 45.0383 80.9709 45.0404C81.2393 47.446 83.3066 49.2894 85.7364 49.2894H95.9957C98.4262 49.2894 100.493 47.4453 100.761 45.0404L104.239 15.331C104.45 15.3337 104.661 15.2945 104.857 15.2156C105.053 15.1366 105.232 15.0196 105.383 14.8713C105.533 14.723 105.653 14.5464 105.734 14.3517C105.816 14.157 105.858 13.9481 105.857 13.7371C105.857 13.5262 105.815 13.3174 105.733 13.1229C105.651 12.9284 105.531 12.7521 105.38 12.6042C105.229 12.4563 105.05 12.3397 104.853 12.2613C104.657 12.1829 104.446 12.1442 104.234 12.1474H93.6671L95.848 5.62479L102.33 4.70246C102.732 4.65172 103.099 4.45101 103.358 4.1409C103.617 3.83078 103.748 3.43437 103.725 3.03175C103.702 2.62912 103.526 2.25029 103.233 1.97178C102.94 1.69327 102.552 1.53584 102.147 1.5313ZM80.9979 15.331H91.1928C91.3575 15.3569 91.5254 15.3569 91.6901 15.331H101.021L97.5856 44.6819C97.5856 44.6846 97.5856 44.6874 97.5856 44.6901C97.4941 45.5092 96.8235 46.1058 95.9957 46.1058H85.7364C84.9103 46.1058 84.2432 45.5133 84.1486 44.6964V44.6943L80.9979 15.331Z" fill="#F2CC21"/>
<path d="M81.3242 30.1855H101.568L98.9369 46.1035H84.4722L81.3242 30.1855Z" fill="#F2CC21"/>
</svg>
