<svg width="31" height="49" viewBox="0 0 31 49" fill="none" xmlns="http://www.w3.org/2000/svg">
<path d="M26.7331 0.525444C26.6425 0.524704 26.552 0.531637 26.4626 0.546171L19.0043 1.60737C18.7105 1.64911 18.4343 1.77146 18.2064 1.96071C17.9785 2.14996 17.8081 2.39865 17.714 2.67893L14.8818 11.1416H2.18348C1.97169 11.1386 1.76143 11.1776 1.5649 11.2562C1.36837 11.3349 1.18949 11.4516 1.03867 11.5998C0.887849 11.7479 0.768085 11.9243 0.68634 12.119C0.604595 12.3136 0.5625 12.5224 0.5625 12.7334C0.5625 12.9443 0.604595 13.1532 0.68634 13.3478C0.768085 13.5424 0.887849 13.7189 1.03867 13.867C1.18949 14.0151 1.36837 14.1319 1.5649 14.2105C1.76143 14.2892 1.97169 14.3281 2.18348 14.3252H2.36869L5.55471 44.0283C5.5554 44.0304 5.55609 44.0325 5.55679 44.0346C5.82528 46.4401 7.89251 48.2835 10.3223 48.2835H20.5817C23.0122 48.2835 25.0785 46.4394 25.3472 44.0346L28.8245 14.3252C29.0363 14.3279 29.2465 14.2886 29.4429 14.2097C29.6394 14.1308 29.8181 14.0138 29.9687 13.8655C30.1193 13.7172 30.2388 13.5405 30.3203 13.3458C30.4018 13.1511 30.4436 12.9422 30.4433 12.7313C30.4431 12.5203 30.4007 12.3115 30.3187 12.117C30.2367 11.9225 30.1167 11.7462 29.9657 11.5983C29.8147 11.4504 29.6357 11.3338 29.4391 11.2554C29.2425 11.177 29.0322 11.1383 28.8204 11.1416H18.253L20.4339 4.61893L26.9163 3.6966C27.318 3.64586 27.6854 3.44515 27.9442 3.13504C28.2031 2.82492 28.3341 2.42851 28.3109 2.02589C28.2876 1.62326 28.1118 1.24443 27.819 0.965919C27.5261 0.687411 27.138 0.529985 26.7331 0.525444ZM5.58384 14.3252H15.7787C15.9435 14.351 16.1113 14.351 16.2761 14.3252H25.6073L22.1716 43.676C22.1716 43.6788 22.1716 43.6815 22.1716 43.6843C22.0801 44.5034 21.4094 45.0999 20.5817 45.0999H10.3223C9.49622 45.0999 8.8291 44.5074 8.73449 43.6905V43.6884L5.58384 14.3252Z" fill="#F2CC21"/>
</svg>
