<svg width="77" height="52" viewBox="0 0 77 52" fill="none" xmlns="http://www.w3.org/2000/svg">
<path d="M32.6863 1.52544C32.5956 1.5247 32.5051 1.53164 32.4157 1.54617L24.9574 2.60737C24.6637 2.64911 24.3874 2.77146 24.1595 2.96071C23.9317 3.14996 23.7612 3.39865 23.6672 3.67893L20.8349 12.1416H8.1366C7.92482 12.1386 7.71455 12.1776 7.51802 12.2562C7.32149 12.3349 7.14262 12.4516 6.9918 12.5998C6.84097 12.7479 6.72121 12.9243 6.63947 13.119C6.55772 13.3136 6.51562 13.5224 6.51562 13.7334C6.51562 13.9443 6.55772 14.1532 6.63947 14.3478C6.72121 14.5424 6.84097 14.7189 6.9918 14.867C7.14262 15.0151 7.32149 15.1319 7.51802 15.2105C7.71455 15.2892 7.92482 15.3281 8.1366 15.3252H8.32181L11.5078 45.0283C11.5085 45.0304 11.5092 45.0325 11.5099 45.0346C11.7784 47.4401 13.8456 49.2835 16.2754 49.2835H26.5348C28.9653 49.2835 31.0317 47.4394 31.3003 45.0346L34.7777 15.3252C34.9894 15.3279 35.1996 15.2886 35.3961 15.2097C35.5925 15.1308 35.7712 15.0138 35.9218 14.8655C36.0724 14.7172 36.1919 14.5405 36.2734 14.3458C36.3549 14.1511 36.3967 13.9422 36.3965 13.7313C36.3962 13.5203 36.3538 13.3115 36.2718 13.117C36.1898 12.9225 36.0698 12.7462 35.9188 12.5983C35.7678 12.4504 35.5888 12.3338 35.3922 12.2554C35.1956 12.177 34.9853 12.1383 34.7735 12.1416H24.2061L26.387 5.61893L32.8694 4.6966C33.2711 4.64586 33.6385 4.44515 33.8973 4.13504C34.1562 3.82492 34.2872 3.42851 34.264 3.02589C34.2407 2.62326 34.0649 2.24443 33.7721 1.96592C33.4792 1.68741 33.0911 1.52998 32.6863 1.52544ZM11.537 15.3252H21.7318C21.8966 15.351 22.0644 15.351 22.2292 15.3252H31.5604L28.1247 44.676C28.1247 44.6788 28.1247 44.6815 28.1247 44.6843C28.0332 45.5034 27.3625 46.0999 26.5348 46.0999H16.2754C15.4493 46.0999 14.7822 45.5074 14.6876 44.6905V44.6884L11.537 15.3252Z" fill="#F2CC21"/>
<path d="M11.332 15.3252H31.5761L28.9447 47.1611H14.48L11.332 15.3252Z" fill="#F2CC21"/>
<path d="M66.8034 1.53033C66.7128 1.52959 66.6223 1.53652 66.5329 1.55105L59.0746 2.61225C58.7809 2.654 58.5046 2.77634 58.2767 2.96559C58.0488 3.15484 57.8784 3.40353 57.7843 3.68381L54.9521 12.1465H42.2538C42.042 12.1435 41.8317 12.1824 41.6352 12.2611C41.4387 12.3398 41.2598 12.4565 41.109 12.6046C40.9582 12.7527 40.8384 12.9292 40.7567 13.1238C40.6749 13.3184 40.6328 13.5273 40.6328 13.7382C40.6328 13.9492 40.6749 14.1581 40.7567 14.3527C40.8384 14.5473 40.9582 14.7238 41.109 14.8719C41.2598 15.02 41.4387 15.1367 41.6352 15.2154C41.8317 15.2941 42.042 15.333 42.2538 15.33H42.439L45.625 45.0332C45.6257 45.0353 45.6264 45.0374 45.6271 45.0394C45.8956 47.445 47.9628 49.2884 50.3926 49.2884H60.652C63.0825 49.2884 65.1489 47.4443 65.4175 45.0394L68.8949 15.33C69.1066 15.3327 69.3168 15.2935 69.5132 15.2146C69.7097 15.1357 69.8884 15.0186 70.039 14.8703C70.1896 14.722 70.3091 14.5454 70.3906 14.3507C70.4721 14.156 70.5139 13.9471 70.5136 13.7361C70.5134 13.5252 70.471 13.3164 70.389 13.1219C70.307 12.9274 70.187 12.7511 70.036 12.6032C69.885 12.4553 69.706 12.3387 69.5094 12.2603C69.3128 12.1819 69.1025 12.1432 68.8907 12.1465H58.3233L60.5042 5.62382L66.9866 4.70149C67.3883 4.65074 67.7557 4.45004 68.0145 4.13992C68.2734 3.82981 68.4044 3.4334 68.3812 3.03077C68.3579 2.62814 68.1821 2.24931 67.8893 1.9708C67.5964 1.69229 67.2083 1.53487 66.8034 1.53033ZM45.6542 15.33H55.849C56.0138 15.3559 56.1816 15.3559 56.3464 15.33H65.6776L62.2419 44.6809C62.2419 44.6836 62.2419 44.6864 62.2419 44.6892C62.1504 45.5083 61.4797 46.1048 60.652 46.1048H50.3926C49.5665 46.1048 48.8994 45.5123 48.8048 44.6954V44.6933L45.6542 15.33Z" fill="#F2CC21"/>
<path d="M45.9844 30.1865H66.2284L63.597 46.1045H49.1324L45.9844 30.1865Z" fill="#F2CC21"/>
</svg>
