<svg width="112" height="52" viewBox="0 0 112 52" fill="none" xmlns="http://www.w3.org/2000/svg">
<path d="M33.0613 1.52544C32.9706 1.5247 32.8801 1.53164 32.7907 1.54617L25.3324 2.60737C25.0387 2.64911 24.7624 2.77146 24.5345 2.96071C24.3067 3.14996 24.1362 3.39865 24.0422 3.67893L21.2099 12.1416H8.5116C8.29982 12.1386 8.08955 12.1776 7.89302 12.2562C7.69649 12.3349 7.51762 12.4516 7.3668 12.5998C7.21597 12.7479 7.09621 12.9243 7.01447 13.119C6.93272 13.3136 6.89062 13.5224 6.89062 13.7334C6.89062 13.9443 6.93272 14.1532 7.01447 14.3478C7.09621 14.5424 7.21597 14.7189 7.3668 14.867C7.51762 15.0151 7.69649 15.1319 7.89302 15.2105C8.08955 15.2892 8.29982 15.3281 8.5116 15.3252H8.69681L11.8828 45.0283C11.8835 45.0304 11.8842 45.0325 11.8849 45.0346C12.1534 47.4401 14.2206 49.2835 16.6504 49.2835H26.9098C29.3403 49.2835 31.4067 47.4394 31.6753 45.0346L35.1527 15.3252C35.3644 15.3279 35.5746 15.2886 35.7711 15.2097C35.9675 15.1308 36.1462 15.0138 36.2968 14.8655C36.4474 14.7172 36.5669 14.5405 36.6484 14.3458C36.7299 14.1511 36.7717 13.9422 36.7715 13.7313C36.7712 13.5203 36.7288 13.3115 36.6468 13.117C36.5648 12.9225 36.4448 12.7462 36.2938 12.5983C36.1428 12.4504 35.9638 12.3338 35.7672 12.2554C35.5706 12.177 35.3603 12.1383 35.1485 12.1416H24.5811L26.762 5.61893L33.2444 4.6966C33.6461 4.64586 34.0135 4.44515 34.2723 4.13504C34.5312 3.82492 34.6622 3.42851 34.639 3.02589C34.6157 2.62326 34.4399 2.24443 34.1471 1.96592C33.8542 1.68741 33.4661 1.52998 33.0613 1.52544ZM11.912 15.3252H22.1068C22.2716 15.351 22.4394 15.351 22.6042 15.3252H31.9354L28.4997 44.676C28.4997 44.6788 28.4997 44.6815 28.4997 44.6843C28.4082 45.5034 27.7375 46.0999 26.9098 46.0999H16.6504C15.8243 46.0999 15.1572 45.5074 15.0626 44.6905V44.6884L11.912 15.3252Z" fill="#F2CC21"/>
<path d="M11.707 15.3252H31.9511L29.3197 47.1611H14.855L11.707 15.3252Z" fill="#F2CC21"/>
<path d="M67.1784 1.53033C67.0878 1.52959 66.9973 1.53652 66.9079 1.55105L59.4496 2.61225C59.1559 2.654 58.8796 2.77634 58.6517 2.96559C58.4238 3.15484 58.2534 3.40353 58.1593 3.68381L55.3271 12.1465H42.6288C42.417 12.1435 42.2067 12.1824 42.0102 12.2611C41.8137 12.3398 41.6348 12.4565 41.484 12.6046C41.3332 12.7527 41.2134 12.9292 41.1317 13.1238C41.0499 13.3184 41.0078 13.5273 41.0078 13.7382C41.0078 13.9492 41.0499 14.1581 41.1317 14.3527C41.2134 14.5473 41.3332 14.7238 41.484 14.8719C41.6348 15.02 41.8137 15.1367 42.0102 15.2154C42.2067 15.2941 42.417 15.333 42.6288 15.33H42.814L46 45.0332C46.0007 45.0353 46.0014 45.0374 46.0021 45.0394C46.2706 47.445 48.3378 49.2884 50.7676 49.2884H61.027C63.4575 49.2884 65.5239 47.4443 65.7925 45.0394L69.2699 15.33C69.4816 15.3327 69.6918 15.2935 69.8882 15.2146C70.0847 15.1357 70.2634 15.0186 70.414 14.8703C70.5646 14.722 70.6841 14.5454 70.7656 14.3507C70.8471 14.156 70.8889 13.9471 70.8886 13.7361C70.8884 13.5252 70.846 13.3164 70.764 13.1219C70.682 12.9274 70.562 12.7511 70.411 12.6032C70.26 12.4553 70.081 12.3387 69.8844 12.2603C69.6878 12.1819 69.4775 12.1432 69.2657 12.1465H58.6983L60.8792 5.62382L67.3616 4.70149C67.7633 4.65074 68.1307 4.45004 68.3895 4.13992C68.6484 3.82981 68.7794 3.4334 68.7562 3.03077C68.7329 2.62814 68.5571 2.24931 68.2643 1.9708C67.9714 1.69229 67.5833 1.53487 67.1784 1.53033ZM46.0292 15.33H56.224C56.3888 15.3559 56.5566 15.3559 56.7214 15.33H66.0526L62.6169 44.6809C62.6169 44.6836 62.6169 44.6864 62.6169 44.6892C62.5254 45.5083 61.8547 46.1048 61.027 46.1048H50.7676C49.9415 46.1048 49.2744 45.5123 49.1798 44.6954V44.6933L46.0292 15.33Z" fill="#F2CC21"/>
<path d="M45.2695 14.4766H67.0052L64.18 46.3125H48.6495L45.2695 14.4766Z" fill="#F2CC21"/>
<path d="M101.702 1.5313C101.611 1.53056 101.521 1.5375 101.431 1.55203L93.973 2.61323C93.6793 2.65497 93.403 2.77732 93.1752 2.96657C92.9473 3.15582 92.7768 3.40451 92.6828 3.68479L89.8505 12.1474H77.1522C76.9404 12.1444 76.7302 12.1834 76.5336 12.2621C76.3371 12.3407 76.1582 12.4575 76.0074 12.6056C75.8566 12.7537 75.7368 12.9302 75.6551 13.1248C75.5733 13.3194 75.5312 13.5283 75.5312 13.7392C75.5312 13.9502 75.5733 14.159 75.6551 14.3536C75.7368 14.5482 75.8566 14.7247 76.0074 14.8728C76.1582 15.0209 76.3371 15.1377 76.5336 15.2164C76.7302 15.295 76.9404 15.334 77.1522 15.331H77.3374L80.5235 45.0342C80.5241 45.0363 80.5248 45.0383 80.5255 45.0404C80.794 47.446 82.8613 49.2894 85.291 49.2894H95.5504C97.9809 49.2894 100.047 47.4453 100.316 45.0404L103.793 15.331C104.005 15.3337 104.215 15.2945 104.412 15.2156C104.608 15.1366 104.787 15.0196 104.937 14.8713C105.088 14.723 105.208 14.5464 105.289 14.3517C105.371 14.157 105.412 13.9481 105.412 13.7371C105.412 13.5262 105.369 13.3174 105.287 13.1229C105.205 12.9284 105.085 12.7521 104.934 12.6042C104.783 12.4563 104.604 12.3397 104.408 12.2613C104.211 12.1829 104.001 12.1442 103.789 12.1474H93.2218L95.4027 5.62479L101.885 4.70246C102.287 4.65172 102.654 4.45101 102.913 4.1409C103.172 3.83078 103.303 3.43437 103.28 3.03175C103.256 2.62912 103.081 2.25029 102.788 1.97178C102.495 1.69327 102.107 1.53584 101.702 1.5313ZM80.5526 15.331H90.7475C90.9122 15.3569 91.08 15.3569 91.2448 15.331H100.576L97.1403 44.6819C97.1403 44.6846 97.1403 44.6874 97.1403 44.6901C97.0488 45.5092 96.3782 46.1058 95.5504 46.1058H85.291C84.465 46.1058 83.7978 45.5133 83.7032 44.6964V44.6943L80.5526 15.331Z" fill="#F2CC21"/>
<path d="M79.7891 18.2969H101.525L98.6995 46.3125H83.169L79.7891 18.2969Z" fill="#F2CC21"/>
</svg>
