<svg width="16" height="14" viewBox="0 0 16 14" fill="none" xmlns="http://www.w3.org/2000/svg">
<path d="M6.28906 0.25C5.4117 0.25 4.62584 0.809777 4.33936 1.6394L4.04199 2.5H2.41528C1.15693 2.5 0.125 3.53193 0.125 4.79028V11.0847C0.125 12.3431 1.15693 13.3757 2.41528 13.3757H13.2097C14.4681 13.3757 15.5007 12.3431 15.5007 11.0847V4.79028C15.5002 3.53205 14.4681 2.5 13.2097 2.5H11.928L11.6306 1.6394L11.6299 1.63867C11.3436 0.809311 10.5579 0.25 9.68091 0.25H6.28906ZM6.28906 1.375H9.68091C10.083 1.375 10.4362 1.62649 10.5671 2.00635L10.9956 3.24634C11.0339 3.35691 11.1056 3.45281 11.2009 3.52068C11.2962 3.58855 11.4103 3.62502 11.5273 3.625H13.2097C13.8601 3.625 14.3755 4.1405 14.3757 4.79102V11.0847C14.3757 11.7351 13.8601 12.2507 13.2097 12.2507H2.41528C1.76489 12.2507 1.25 11.7351 1.25 11.0847V4.79028C1.25 4.13989 1.76489 3.625 2.41528 3.625H4.44336C4.56036 3.62502 4.67446 3.58855 4.76977 3.52068C4.86508 3.45281 4.93685 3.35691 4.9751 3.24634L5.40283 2.00635C5.5341 1.62622 5.88693 1.375 6.28906 1.375ZM8 4.375C6.1427 4.375 4.625 5.8927 4.625 7.75C4.625 9.6073 6.1427 11.125 8 11.125C9.8573 11.125 11.375 9.6073 11.375 7.75C11.375 5.8927 9.8573 4.375 8 4.375ZM8 5.5C9.2493 5.5 10.25 6.5007 10.25 7.75C10.25 8.9993 9.2493 10 8 10C6.7507 10 5.75 8.9993 5.75 7.75C5.75 6.5007 6.7507 5.5 8 5.5Z" fill="#9B959F"/>
</svg>
