<svg width="73" height="72" viewBox="0 0 73 72" fill="none" xmlns="http://www.w3.org/2000/svg">
<rect x="2.5" y="2" width="68" height="68" rx="14" fill="white" stroke="#C8FB66" stroke-width="4"/>
<path d="M26.0055 21.439C29.0909 21.439 31.9666 22.627 34.1302 24.7901C34.1305 24.7904 34.1308 24.7907 34.1311 24.791L35.4553 26.1193L36.8696 27.5379L38.2859 26.1215L39.6153 24.7922C39.6154 24.7921 39.6155 24.792 39.6155 24.7919C41.781 22.6301 44.6581 21.439 47.7379 21.439C50.8468 21.439 53.729 22.629 55.8857 24.7885C60.3619 29.2866 60.3569 36.5895 55.8847 41.0582L55.8839 41.0589L40.4128 56.5342C40.4127 56.5343 40.4126 56.5343 40.4126 56.5344C39.4652 57.4817 38.215 57.9998 36.8758 57.9998H36.8635C35.5339 57.9998 34.2826 57.4826 33.3337 56.5373C33.3333 56.5369 33.3329 56.5365 33.3325 56.5361L17.8595 41.0589L17.8582 41.0576C13.3826 36.5891 13.3777 29.2913 17.861 24.7934C20.0192 22.6321 22.9022 21.439 26.0055 21.439ZM40.2988 56.427L40.3046 56.4212L55.7691 40.9486C55.7694 40.9483 55.7697 40.948 55.77 40.9477C60.2021 36.5296 60.1927 29.3342 55.7804 24.892L55.774 24.8855C53.6345 22.7511 50.7721 21.5828 47.7379 21.5828C44.7145 21.5828 41.8611 22.7592 39.729 24.8913L36.8724 27.7451L34.0185 24.8913L32.6447 26.2651L34.0185 24.8913C31.8861 22.7589 29.0325 21.5828 26.0055 21.5828C22.9662 21.5828 20.1022 22.756 17.9702 24.8929L17.9695 24.8937C13.5533 29.3249 13.5423 36.5215 17.9686 40.9428L33.4431 56.4214L33.4432 56.4216C34.3544 57.3327 35.5801 57.8395 36.8676 57.8395C38.1673 57.8395 39.3858 57.3331 40.2988 56.427Z" fill="black" stroke="black" stroke-width="4"/>
<path d="M38.716 15.8472C38.716 16.864 37.8855 17.6945 36.8688 17.6945C35.852 17.6945 35.0215 16.864 35.0215 15.8472C35.0215 14.8305 35.852 14 36.8688 14C37.8855 14 38.716 14.8305 38.716 15.8472Z" fill="black" stroke="black" stroke-width="4"/>
</svg>
