<svg width="73" height="72" viewBox="0 0 73 72" fill="none" xmlns="http://www.w3.org/2000/svg">
<rect x="2.5" y="2" width="68" height="68" rx="14" fill="#C8FB66" stroke="#C8FB66" stroke-width="4"/>
<path d="M34.1299 24.7903C31.9663 22.6273 29.0907 21.4395 26.0055 21.4395C22.9021 21.4395 20.019 22.6326 17.8608 24.7942L34.1299 24.7903ZM34.1299 24.7903C34.1303 24.7907 34.1307 24.7911 34.1311 24.7915L35.4553 26.1198L36.8696 27.5384L38.2859 26.122L39.6153 24.7927L34.1299 24.7903ZM17.8582 41.0581L17.8595 41.0594L33.3325 56.5366C33.3328 56.5369 33.333 56.5371 33.3333 56.5373C34.2822 57.4829 35.5337 58.0002 36.8635 58.0002H36.8758C38.2151 58.0002 39.4653 57.4821 40.4128 56.5347L55.8839 41.0594L55.8847 41.0587C60.3569 36.59 60.3619 29.2869 55.8856 24.7888C53.7288 22.6294 50.8467 21.4395 47.7379 21.4395C44.6585 21.4395 41.7817 22.6303 39.6164 24.7915L17.8582 41.0581ZM17.8582 41.0581C13.3828 36.5898 13.3777 29.2925 17.8604 24.7945L17.8582 41.0581ZM40.2988 56.4275L40.3046 56.4217L55.7691 40.949C55.7694 40.9487 55.7697 40.9485 55.77 40.9482C60.2021 36.5301 60.1927 29.3347 55.7804 24.8924L55.774 24.886C53.6345 22.7516 50.7721 21.5833 47.7379 21.5833C44.7145 21.5833 41.8611 22.7597 39.729 24.8918L36.8724 27.7456L34.0185 24.8918L32.6447 26.2656L34.0185 24.8918C31.8861 22.7593 29.0325 21.5833 26.0055 21.5833C22.9662 21.5833 20.1022 22.7565 17.9702 24.8934L17.9695 24.8942C13.5533 29.3254 13.5423 36.522 17.9686 40.9433L33.4431 56.4219L33.4432 56.4221C34.3544 57.3332 35.5801 57.8399 36.8676 57.8399C38.1673 57.8399 39.3858 57.3336 40.2988 56.4275ZM35.4946 29.1221C35.4948 29.1219 35.495 29.1216 35.4953 29.1214L35.4946 29.1221Z" fill="white" stroke="white" stroke-width="4"/>
<path d="M38.716 15.8472C38.716 16.864 37.8855 17.6945 36.8688 17.6945C35.852 17.6945 35.0215 16.864 35.0215 15.8472C35.0215 14.8305 35.852 14 36.8688 14C37.8855 14 38.716 14.8305 38.716 15.8472Z" fill="white" stroke="white" stroke-width="4"/>
</svg>
