<svg width="73" height="72" viewBox="0 0 73 72" fill="none" xmlns="http://www.w3.org/2000/svg">
<rect x="2.5" y="2" width="68" height="68" rx="14" fill="#30E8F4" stroke="#30E8F4" stroke-width="4"/>
<mask id="path-2-inside-1_173_11461" fill="white">
<path d="M55.0962 21.8348C54.6894 20.7136 54.0661 19.697 53.2459 18.8177C52.4257 17.9384 51.4546 17.2487 50.3622 16.7616C49.2237 16.255 48.0099 16 46.7566 16H25.363C24.1163 16 22.909 16.2517 21.7772 16.7518C20.688 17.2323 19.7202 17.9155 18.9033 18.785C18.0831 19.6545 17.4598 20.6613 17.0464 21.7727C16.6166 22.9298 16.4394 24.1458 16.5182 25.3847L17.9256 47.7202C18.0667 49.9724 19.0542 52.0611 20.7044 53.604C22.3546 55.1469 24.51 56 26.7737 56H45.1294C47.3767 56 49.5223 55.1599 51.1659 53.6367C52.8129 52.1102 53.8069 50.041 53.971 47.8084L55.6015 25.4729C55.6868 24.2275 55.5195 23.0017 55.0962 21.8348ZM52.5078 25.2506L50.8772 47.5862C50.6607 50.5738 48.1313 52.9175 45.1261 52.9175H26.7705C23.7325 52.9175 21.2031 50.5509 21.0128 47.5306L19.6053 25.1951C19.5036 23.5934 20.0548 22.0701 21.1571 20.8999C22.2595 19.7297 23.7522 19.0857 25.3597 19.0857H46.7534C48.374 19.0857 49.8733 19.7362 50.9757 20.9195C52.0813 22.1028 52.6259 23.6424 52.5078 25.2506Z"/>
</mask>
<path d="M55.0962 21.8348C54.6894 20.7136 54.0661 19.697 53.2459 18.8177C52.4257 17.9384 51.4546 17.2487 50.3622 16.7616C49.2237 16.255 48.0099 16 46.7566 16H25.363C24.1163 16 22.909 16.2517 21.7772 16.7518C20.688 17.2323 19.7202 17.9155 18.9033 18.785C18.0831 19.6545 17.4598 20.6613 17.0464 21.7727C16.6166 22.9298 16.4394 24.1458 16.5182 25.3847L17.9256 47.7202C18.0667 49.9724 19.0542 52.0611 20.7044 53.604C22.3546 55.1469 24.51 56 26.7737 56H45.1294C47.3767 56 49.5223 55.1599 51.1659 53.6367C52.8129 52.1102 53.8069 50.041 53.971 47.8084L55.6015 25.4729C55.6868 24.2275 55.5195 23.0017 55.0962 21.8348ZM52.5078 25.2506L50.8772 47.5862C50.6607 50.5738 48.1313 52.9175 45.1261 52.9175H26.7705C23.7325 52.9175 21.2031 50.5509 21.0128 47.5306L19.6053 25.1951C19.5036 23.5934 20.0548 22.0701 21.1571 20.8999C22.2595 19.7297 23.7522 19.0857 25.3597 19.0857H46.7534C48.374 19.0857 49.8733 19.7362 50.9757 20.9195C52.0813 22.1028 52.6259 23.6424 52.5078 25.2506Z" fill="white"/>
<path d="M55.0962 21.8348L58.8566 20.471L58.8564 20.4704L55.0962 21.8348ZM50.3622 16.7616L51.9909 13.1082L51.9886 13.1072L50.3622 16.7616ZM21.7772 16.7518L23.3917 20.4115L23.3938 20.4106L21.7772 16.7518ZM18.9033 18.785L21.813 21.5297L21.8185 21.5239L18.9033 18.785ZM17.0464 21.7727L13.2973 20.3782L13.2967 20.38L17.0464 21.7727ZM16.5182 25.3847L20.5103 25.1331L20.5101 25.1309L16.5182 25.3847ZM17.9256 47.7202L21.9178 47.4701L21.9177 47.4686L17.9256 47.7202ZM51.1659 53.6367L53.8849 56.5705L53.8851 56.5703L51.1659 53.6367ZM53.971 47.8084L57.9602 48.1016L57.9603 48.0997L53.971 47.8084ZM55.6015 25.4729L59.5909 25.7641L59.5915 25.7552L59.5921 25.7462L55.6015 25.4729ZM52.5078 25.2506L48.5185 24.9577L48.5184 24.9594L52.5078 25.2506ZM50.8772 47.5862L46.8878 47.2949L46.8877 47.297L50.8772 47.5862ZM21.0128 47.5306L25.0049 47.2791L25.0049 47.279L21.0128 47.5306ZM19.6053 25.1951L23.5974 24.9435L23.5973 24.9416L19.6053 25.1951ZM50.9757 20.9195L48.0489 23.646L48.0529 23.6504L50.9757 20.9195ZM58.8564 20.4704C58.2645 18.8391 57.3557 17.3594 56.171 16.0893L50.3209 21.5461C50.7765 22.0346 51.1144 22.5881 51.3361 23.1991L58.8564 20.4704ZM56.171 16.0893C54.9819 14.8145 53.5689 13.8117 51.9909 13.1082L48.7334 20.415C49.3404 20.6856 49.8696 21.0622 50.3209 21.5461L56.171 16.0893ZM51.9886 13.1072C50.3309 12.3694 48.5621 12 46.7566 12V20C47.4576 20 48.1166 20.1405 48.7357 20.416L51.9886 13.1072ZM46.7566 12H25.363V20H46.7566V12ZM25.363 12C23.5686 12 21.8098 12.3643 20.1605 13.0931L23.3938 20.4106C24.0082 20.1391 24.6641 20 25.363 20V12ZM20.1627 13.0921C18.5854 13.788 17.1745 14.7833 15.9881 16.0461L21.8185 21.5239C22.2658 21.0477 22.7906 20.6767 23.3917 20.4115L20.1627 13.0921ZM15.9935 16.0403C14.8042 17.3011 13.8963 18.7676 13.2973 20.3782L20.7955 23.1671C21.0232 22.5549 21.362 22.0078 21.813 21.5297L15.9935 16.0403ZM13.2967 20.38C12.6697 22.068 12.4123 23.8453 12.5262 25.6384L20.5101 25.1309C20.4666 24.4463 20.5635 23.7916 20.7961 23.1653L13.2967 20.38ZM12.5261 25.6362L13.9335 47.9717L21.9177 47.4686L20.5103 25.1331L12.5261 25.6362ZM13.9334 47.9703C14.1385 51.2444 15.579 54.288 17.9726 56.5259L23.4362 50.6821C22.5293 49.8343 21.9948 48.7004 21.9178 47.4701L13.9334 47.9703ZM17.9726 56.5259C20.3624 58.7602 23.4938 60 26.7737 60V52C25.5263 52 24.3468 51.5335 23.4362 50.6821L17.9726 56.5259ZM26.7737 60H45.1294V52H26.7737V60ZM45.1294 60C48.3819 60 51.4994 58.7812 53.8849 56.5705L48.447 50.7028C47.5451 51.5386 46.3715 52 45.1294 52V60ZM53.8851 56.5703C56.2739 54.3561 57.722 51.3435 57.9602 48.1016L49.9817 47.5153C49.8918 48.7385 49.3518 49.8642 48.4468 50.703L53.8851 56.5703ZM57.9603 48.0997L59.5909 25.7641L51.6121 25.1817L49.9816 47.5172L57.9603 48.0997ZM59.5921 25.7462C59.7146 23.958 59.4741 22.1737 58.8566 20.471L51.3359 23.1985C51.5648 23.8297 51.6589 24.497 51.6108 25.1996L59.5921 25.7462ZM48.5184 24.9594L46.8878 47.2949L54.8666 47.8774L56.4971 25.5419L48.5184 24.9594ZM46.8877 47.297C46.8237 48.1805 46.0471 48.9175 45.1261 48.9175V56.9175C50.2154 56.9175 54.4977 52.9672 54.8668 47.8753L46.8877 47.297ZM45.1261 48.9175H26.7705V56.9175H45.1261V48.9175ZM26.7705 48.9175C25.8309 48.9175 25.0616 48.1791 25.0049 47.2791L17.0207 47.7821C17.3446 52.9228 21.6341 56.9175 26.7705 56.9175V48.9175ZM25.0049 47.279L23.5974 24.9435L15.6133 25.4466L17.0207 47.7822L25.0049 47.279ZM23.5973 24.9416C23.5661 24.4495 23.7227 24.0099 24.0688 23.6426L18.2455 18.1572C16.3869 20.1303 15.4412 22.7372 15.6134 25.4485L23.5973 24.9416ZM24.0688 23.6426C24.4145 23.2755 24.8534 23.0857 25.3597 23.0857V15.0857C22.6509 15.0857 20.1044 16.1838 18.2455 18.1572L24.0688 23.6426ZM25.3597 23.0857H46.7534V15.0857H25.3597V23.0857ZM46.7534 23.0857C47.2685 23.0857 47.7062 23.2782 48.0489 23.646L53.9024 18.193C52.0404 16.1942 49.4796 15.0857 46.7534 15.0857V23.0857ZM48.0529 23.6504C48.4006 24.0225 48.5545 24.4673 48.5185 24.9577L56.497 25.5436C56.6972 22.8175 55.7619 20.1831 53.8984 18.1887L48.0529 23.6504Z" fill="white" mask="url(#path-2-inside-1_173_11461)"/>
<mask id="path-4-inside-2_173_11461" fill="white">
<path d="M44.2616 26.7984C43.9828 26.4355 43.6776 26.089 43.3529 25.7622C42.4933 24.9057 41.4992 24.2128 40.4494 23.729C40.4265 23.7159 40.3838 23.6963 40.3608 23.6865C40.2657 23.644 40.1673 23.6015 40.0721 23.559C37.5263 22.4868 34.5802 22.4868 32.0409 23.559L31.8408 23.6473C30.6925 24.1605 29.6558 24.8698 28.7602 25.7622C27.8121 26.7068 27.0706 27.8051 26.549 29.0277C26.0109 30.2959 25.7354 31.6427 25.7354 33.0286V33.5647C25.7354 34.1204 26.1881 34.5715 26.7458 34.5715H45.3607C45.9184 34.5715 46.3711 34.1204 46.3711 33.5647V33.0286C46.3711 31.6394 46.0988 30.2927 45.5608 29.0277C45.2261 28.2334 44.7865 27.4815 44.2616 26.7984ZM37.5788 31.4858L36.3124 28.9035C35.9384 28.1386 35.01 27.8215 34.239 28.1941C33.4746 28.5668 33.1531 29.4918 33.5271 30.2567L34.1307 31.4858H29.003C29.1867 30.6457 29.518 29.8514 29.9675 29.1649L30.581 28.3478C31.165 27.6711 31.8605 27.1122 32.5888 26.7166L33.5402 26.2852C34.1963 26.04 34.882 25.8962 35.5185 25.8537L36.5322 25.8504C37.2573 25.8962 37.9692 26.0531 38.586 26.2852L39.5046 26.7068C40.2755 27.1252 40.9612 27.6777 41.496 28.2922L42.1127 29.1061C42.5917 29.8318 42.9296 30.6424 43.1166 31.4858H37.5788Z"/>
</mask>
<path d="M44.2616 26.7984C43.9828 26.4355 43.6776 26.089 43.3529 25.7622C42.4933 24.9057 41.4992 24.2128 40.4494 23.729C40.4265 23.7159 40.3838 23.6963 40.3608 23.6865C40.2657 23.644 40.1673 23.6015 40.0721 23.559C37.5263 22.4868 34.5802 22.4868 32.0409 23.559L31.8408 23.6473C30.6925 24.1605 29.6558 24.8698 28.7602 25.7622C27.8121 26.7068 27.0706 27.8051 26.549 29.0277C26.0109 30.2959 25.7354 31.6427 25.7354 33.0286V33.5647C25.7354 34.1204 26.1881 34.5715 26.7458 34.5715H45.3607C45.9184 34.5715 46.3711 34.1204 46.3711 33.5647V33.0286C46.3711 31.6394 46.0988 30.2927 45.5608 29.0277C45.2261 28.2334 44.7865 27.4815 44.2616 26.7984ZM37.5788 31.4858L36.3124 28.9035C35.9384 28.1386 35.01 27.8215 34.239 28.1941C33.4746 28.5668 33.1531 29.4918 33.5271 30.2567L34.1307 31.4858H29.003C29.1867 30.6457 29.518 29.8514 29.9675 29.1649L30.581 28.3478C31.165 27.6711 31.8605 27.1122 32.5888 26.7166L33.5402 26.2852C34.1963 26.04 34.882 25.8962 35.5185 25.8537L36.5322 25.8504C37.2573 25.8962 37.9692 26.0531 38.586 26.2852L39.5046 26.7068C40.2755 27.1252 40.9612 27.6777 41.496 28.2922L42.1127 29.1061C42.5917 29.8318 42.9296 30.6424 43.1166 31.4858H37.5788Z" fill="white"/>
<path d="M44.2616 26.7984L47.4335 24.3613L47.4331 24.3608L44.2616 26.7984ZM43.3529 25.7622L46.1903 22.9428L46.1832 22.9357L46.1761 22.9286L43.3529 25.7622ZM40.4494 23.729L38.4703 27.2051L38.6195 27.29L38.7754 27.3618L40.4494 23.729ZM40.3608 23.6865L38.7296 27.3387L38.7597 27.3522L38.79 27.3651L40.3608 23.6865ZM40.0721 23.559L41.7034 19.9067L41.6642 19.8892L41.6246 19.8726L40.0721 23.559ZM32.0409 23.559L30.485 19.874L30.4559 19.8863L30.427 19.8991L32.0409 23.559ZM31.8408 23.6473L30.2268 19.9873L30.2177 19.9913L30.2086 19.9954L31.8408 23.6473ZM26.549 29.0277L22.8699 27.4578L22.8666 27.4655L26.549 29.0277ZM45.5608 29.0277L41.8745 30.5806L41.8799 30.5932L45.5608 29.0277ZM37.5788 31.4858L33.9874 33.247L35.0853 35.4858H37.5788V31.4858ZM36.3124 28.9035L32.719 30.6605L32.721 30.6647L36.3124 28.9035ZM34.239 28.1941L32.4983 24.5927L32.4862 24.5986L34.239 28.1941ZM33.5271 30.2567L29.9336 32.0138L29.9368 32.0201L33.5271 30.2567ZM34.1307 31.4858V35.4858H40.5517L37.7211 29.7224L34.1307 31.4858ZM29.003 31.4858L25.0953 30.6312L24.0336 35.4858H29.003V31.4858ZM29.9675 29.1649L26.7686 26.7634L26.6914 26.8662L26.621 26.9738L29.9675 29.1649ZM30.581 28.3478L27.5528 25.7343L27.4639 25.8374L27.3821 25.9463L30.581 28.3478ZM32.5888 26.7166L30.9367 23.0738L30.806 23.133L30.6799 23.2015L32.5888 26.7166ZM33.5402 26.2852L32.1402 22.5382L32.0124 22.5859L31.8881 22.6423L33.5402 26.2852ZM35.5185 25.8537L35.5056 21.8537L35.3787 21.8541L35.252 21.8626L35.5185 25.8537ZM36.5322 25.8504L36.7842 21.8584L36.6519 21.85L36.5194 21.8504L36.5322 25.8504ZM38.586 26.2852L40.2547 22.6499L40.1266 22.5911L39.9947 22.5414L38.586 26.2852ZM39.5046 26.7068L41.4125 23.1912L41.2949 23.1274L41.1733 23.0715L39.5046 26.7068ZM41.496 28.2922L44.684 25.8763L44.6023 25.7685L44.5134 25.6664L41.496 28.2922ZM42.1127 29.1061L45.4511 26.9026L45.3794 26.794L45.3008 26.6903L42.1127 29.1061ZM43.1166 31.4858V35.4858H48.1007L47.0218 30.6199L43.1166 31.4858ZM47.4331 24.3608C47.0455 23.8565 46.6278 23.3831 46.1903 22.9428L40.5154 28.5815C40.7275 28.795 40.92 29.0145 41.0901 29.2359L47.4331 24.3608ZM46.1761 22.9286C44.9938 21.7506 43.6134 20.7827 42.1235 20.0961L38.7754 27.3618C39.3851 27.6428 39.9928 28.0609 40.5296 28.5957L46.1761 22.9286ZM42.4285 20.2529C42.2013 20.1235 41.9885 20.0321 41.9317 20.0078L38.79 27.3651C38.7499 27.348 38.7194 27.3341 38.6941 27.3221C38.6794 27.3151 38.656 27.3039 38.6263 27.2889C38.6017 27.2765 38.5442 27.2471 38.4703 27.2051L42.4285 20.2529ZM41.9921 20.0342C41.9309 20.0069 41.8708 19.9805 41.8245 19.9602C41.774 19.938 41.7374 19.9219 41.7034 19.9067L38.4409 27.2113C38.502 27.2386 38.5621 27.265 38.6085 27.2853C38.6589 27.3074 38.6956 27.3236 38.7296 27.3387L41.9921 20.0342ZM41.6246 19.8726C38.0873 18.3829 34.0203 18.3813 30.485 19.874L33.5968 27.244C35.1401 26.5924 36.9653 26.5908 38.5196 27.2454L41.6246 19.8726ZM30.427 19.8991L30.2268 19.9873L33.4547 27.3072L33.6549 27.2189L30.427 19.8991ZM30.2086 19.9954C28.6205 20.7052 27.1794 21.6907 25.9369 22.9286L31.5834 28.5957C32.1323 28.0489 32.7646 27.6157 33.4729 27.2991L30.2086 19.9954ZM25.9369 22.9286C24.6235 24.2372 23.5922 25.765 22.8699 27.4578L30.2281 30.5975C30.549 29.8452 31.0006 29.1765 31.5834 28.5957L25.9369 22.9286ZM22.8666 27.4655C22.1196 29.2263 21.7354 31.1042 21.7354 33.0286H29.7354C29.7354 32.1812 29.9022 31.3656 30.2313 30.5898L22.8666 27.4655ZM21.7354 33.0286V33.5647H29.7354V33.0286H21.7354ZM21.7354 33.5647C21.7354 36.3433 23.9927 38.5715 26.7458 38.5715V30.5715C28.3835 30.5715 29.7354 31.8975 29.7354 33.5647H21.7354ZM26.7458 38.5715H45.3607V30.5715H26.7458V38.5715ZM45.3607 38.5715C48.1137 38.5715 50.3711 36.3433 50.3711 33.5647H42.3711C42.3711 31.8975 43.723 30.5715 45.3607 30.5715V38.5715ZM50.3711 33.5647V33.0286H42.3711V33.5647H50.3711ZM50.3711 33.0286C50.3711 31.1086 49.9931 29.2288 49.2417 27.4621L41.8799 30.5932C42.2045 31.3566 42.3711 32.1702 42.3711 33.0286H50.3711ZM49.247 27.4747C48.7772 26.3595 48.1634 25.3113 47.4335 24.3613L41.0898 29.2354C41.4097 29.6518 41.6751 30.1072 41.8746 30.5806L49.247 27.4747ZM41.1702 29.7246L39.9038 27.1422L32.721 30.6647L33.9874 33.247L41.1702 29.7246ZM39.9059 27.1464C38.5532 24.3801 35.2286 23.2731 32.4983 24.5927L35.9797 31.7955C34.7914 32.3699 33.3236 31.897 32.719 30.6605L39.9059 27.1464ZM32.4862 24.5986C29.7466 25.9341 28.5825 29.2504 29.9336 32.0138L37.1205 28.4997C37.7237 29.7332 37.2026 31.1994 35.9918 31.7896L32.4862 24.5986ZM29.9368 32.0201L30.5404 33.2492L37.7211 29.7224L37.1174 28.4933L29.9368 32.0201ZM34.1307 27.4858H29.003V35.4858H34.1307V27.4858ZM32.9106 32.3404C32.9941 31.9587 33.1411 31.6201 33.314 31.3561L26.621 26.9738C25.895 28.0827 25.3793 29.3327 25.0953 30.6312L32.9106 32.3404ZM33.1664 31.5664L33.7799 30.7493L27.3821 25.9463L26.7686 26.7634L33.1664 31.5664ZM33.6092 30.9612C33.8874 30.6388 34.2069 30.3897 34.4977 30.2318L30.6799 23.2015C29.514 23.8346 28.4425 24.7034 27.5528 25.7343L33.6092 30.9612ZM34.2409 30.3595L35.1923 29.928L31.8881 22.6423L30.9367 23.0738L34.2409 30.3595ZM34.9402 30.0322C35.2353 29.9219 35.5393 29.8612 35.7849 29.8448L35.252 21.8626C34.2248 21.9311 33.1574 22.1581 32.1402 22.5382L34.9402 30.0322ZM35.5313 29.8537L36.5451 29.8504L36.5194 21.8504L35.5056 21.8537L35.5313 29.8537ZM36.2803 29.8425C36.6134 29.8635 36.9352 29.9378 37.1772 30.0289L39.9947 22.5414C39.0031 22.1683 37.9011 21.9289 36.7842 21.8584L36.2803 29.8425ZM36.9172 29.9204L37.8358 30.3421L41.1733 23.0715L40.2547 22.6499L36.9172 29.9204ZM37.5966 30.2225C37.9576 30.4184 38.2649 30.6725 38.4785 30.918L44.5134 25.6664C43.6575 24.6828 42.5935 23.8321 41.4125 23.1912L37.5966 30.2225ZM38.3079 30.708L38.9247 31.522L45.3008 26.6903L44.684 25.8763L38.3079 30.708ZM38.7744 31.3096C38.9764 31.6157 39.127 31.9708 39.2115 32.3517L47.0218 30.6199C46.7323 29.3141 46.207 28.0479 45.4511 26.9026L38.7744 31.3096ZM43.1166 27.4858H37.5788V35.4858H43.1166V27.4858Z" fill="white" mask="url(#path-4-inside-2_173_11461)"/>
</svg>
