<svg width="72" height="73" viewBox="0 0 72 73" fill="none" xmlns="http://www.w3.org/2000/svg">
<rect x="2" y="2" width="67.7804" height="68.42" rx="14" fill="white"/>
<path d="M47.3669 32.6768C46.7739 31.5951 45.6855 30.9482 44.4521 30.9482H39.2223L44.1926 15.5383C44.6206 14.2106 44.0376 12.8661 42.7773 12.273C41.5171 11.6765 40.1085 12.0809 39.3571 13.257L24.5335 36.36C23.8663 37.3979 23.8225 38.6649 24.4156 39.7466C25.0087 40.8283 26.0971 41.4753 27.3304 41.4753H32.5603L27.5899 56.8851C27.1619 58.2128 27.7449 59.554 29.0052 60.1504C29.3826 60.329 29.7802 60.42 30.1846 60.42C31.0877 60.42 31.9268 59.9516 32.4289 59.1698L47.2524 36.0668C47.9129 35.0256 47.9567 33.7585 47.3669 32.6768ZM35.9267 41.1652C36.1356 40.5149 36.021 39.7971 35.62 39.2445C35.219 38.6918 34.5686 38.3616 33.8846 38.3616H27.3304C27.2934 38.3616 27.2057 38.3616 27.1484 38.2538C27.0878 38.1459 27.135 38.0752 27.1552 38.0415L40.25 17.6309L35.8559 31.2615C35.647 31.9119 35.7615 32.6297 36.1625 33.1823C36.5635 33.7349 37.2139 34.0652 37.898 34.0652H44.4555C44.4926 34.0652 44.5802 34.0652 44.6375 34.173C44.6981 34.2808 44.6509 34.3516 44.6307 34.3853L31.5359 54.7959L35.9267 41.1652Z" fill="black"/>
<path fill-rule="evenodd" clip-rule="evenodd" d="M27.5899 56.8851C27.1619 58.2128 27.7449 59.554 29.0052 60.1504C29.3826 60.329 29.7802 60.42 30.1846 60.42C31.0877 60.42 31.9268 59.9516 32.4289 59.1698L47.2524 36.0668C47.2691 36.0405 47.2853 36.0141 47.3012 35.9876C47.9077 34.9734 47.9411 33.7591 47.3862 32.7127C47.3799 32.7007 47.3735 32.6888 47.3669 32.6768C47.3615 32.6668 47.356 32.6569 47.3504 32.647C46.7543 31.5842 45.6761 30.9493 44.4555 30.9482C44.4544 30.9482 44.4532 30.9482 44.4521 30.9482H39.2223L44.1926 15.5383C44.6206 14.2106 44.0376 12.8661 42.7773 12.273C41.5171 11.6765 40.1085 12.0809 39.3571 13.257L24.5335 36.36C24.5167 36.3861 24.5003 36.4125 24.4842 36.4389C23.8707 37.4514 23.8381 38.6675 24.3983 39.7148C24.404 39.7254 24.4098 39.736 24.4156 39.7466C24.4218 39.7579 24.4281 39.7692 24.4344 39.7804C25.0315 40.8418 26.11 41.4753 27.3304 41.4753H32.5603L27.5899 56.8851ZM44.6307 34.3853C44.6308 34.3851 44.6306 34.3854 44.6307 34.3853C44.6313 34.3843 44.6322 34.3828 44.6329 34.3818C44.654 34.3468 44.6958 34.277 44.6375 34.173C44.6374 34.1729 44.6375 34.1731 44.6375 34.173C44.6363 34.1709 44.6352 34.1688 44.634 34.1667C44.5767 34.0652 44.4918 34.0652 44.4555 34.0652H37.898C37.2139 34.0652 36.5635 33.7349 36.1625 33.1823C35.9184 32.8458 35.7804 32.4481 35.757 32.0416C35.7419 31.7806 35.7742 31.5159 35.8559 31.2615L40.25 17.6309L27.1552 38.0415C27.1551 38.0416 27.1553 38.0413 27.1552 38.0415C27.1547 38.0422 27.154 38.0435 27.1535 38.0443C27.1534 38.0445 27.1537 38.044 27.1535 38.0443C27.1327 38.0787 27.091 38.1477 27.1461 38.2495C27.1468 38.2509 27.1476 38.2523 27.1484 38.2538C27.2057 38.3616 27.2934 38.3616 27.3304 38.3616H33.8846C34.5686 38.3616 35.219 38.6918 35.62 39.2445C35.8651 39.5823 36.0032 39.9818 36.0258 40.39C36.0402 40.6495 36.0079 40.9124 35.9267 41.1652L31.5359 54.7959L44.6307 34.3853Z" fill="black"/>
<rect x="2" y="2" width="67.7804" height="68.42" rx="14" stroke="#FF9744" stroke-width="4"/>
</svg>
