<svg width="79" height="77" viewBox="0 0 79 77" fill="none" xmlns="http://www.w3.org/2000/svg">
<path d="M43.2927 3.11754L52.1981 21.1622C52.8174 22.4173 54.0148 23.2869 55.3999 23.4878L75.314 26.3816C78.8024 26.8889 80.1941 31.1744 77.6709 33.6334L63.2611 47.6792C62.2597 48.6558 61.8019 50.064 62.039 51.4426L65.4401 71.2759C66.0363 74.7495 62.3899 77.3979 59.2704 75.7591L41.4596 66.3958C40.2211 65.7453 38.7404 65.7453 37.5018 66.3958L19.691 75.7591C16.5716 77.3995 12.9251 74.7495 13.5213 71.2759L16.9224 51.4426C17.1595 50.064 16.7017 48.6558 15.7003 47.6792L1.29056 33.6334C-1.23266 31.1728 0.159063 26.8872 3.64744 26.3816L23.5615 23.4878C24.9466 23.2869 26.144 22.4173 26.7633 21.1622L35.6687 3.11754C37.2268 -0.043085 41.733 -0.043085 43.2927 3.11754Z" fill="#FFCD00"/>
</svg>
